PathFileType	4	(X/Y/Z)	..\data\2014025\dynamic\2014025_C4_04.trc
DataRate	CameraRate	NumFrames	NumMarkers	Units	OrigDataRate	OrigDataStartFrame	OrigNumFrames
100.000000	100.000000	4	52	mm	100.000000	57	152
Frame#	Time	L_IAS			L_IPS			R_IPS			R_IAS			L_FTC			L_FLE			L_FME			L_FAX			L_TTC			L_FAL			L_TAM			L_FCC			L_FM1			L_FM2			L_FM5			R_FTC			R_FLE			R_FME			R_FAX			R_TTC			R_FAL			R_TAM			R_FCC			R_FM1			R_FM2			R_FM5			CV7			TV10			SXS			SJN			L_SIA			L_SRS			L_SAA			L_SAE			L_HLE			L_HME			L_UOA			L_RSP			L_UHE			L_HM2			L_HM5			R_SIA			R_SRS			R_SAA			R_SAE			R_HLE			R_HME			R_UOA			R_RSP			R_UHE			R_HM2			R_HM5			
		X1	Y1	Z1	X2	Y2	Z2	X3	Y3	Z3	X4	Y4	Z4	X5	Y5	Z5	X6	Y6	Z6	X7	Y7	Z7	X8	Y8	Z8	X9	Y9	Z9	X10	Y10	Z10	X11	Y11	Z11	X12	Y12	Z12	X13	Y13	Z13	X14	Y14	Z14	X15	Y15	Z15	X16	Y16	Z16	X17	Y17	Z17	X18	Y18	Z18	X19	Y19	Z19	X20	Y20	Z20	X21	Y21	Z21	X22	Y22	Z22	X23	Y23	Z23	X24	Y24	Z24	X25	Y25	Z25	X26	Y26	Z26	X27	Y27	Z27	X28	Y28	Z28	X29	Y29	Z29	X30	Y30	Z30	X31	Y31	Z31	X32	Y32	Z32	X33	Y33	Z33	X34	Y34	Z34	X35	Y35	Z35	X36	Y36	Z36	X37	Y37	Z37	X38	Y38	Z38	X39	Y39	Z39	X40	Y40	Z40	X41	Y41	Z41	X42	Y42	Z42	X43	Y43	Z43	X44	Y44	Z44	X45	Y45	Z45	X46	Y46	Z46	X47	Y47	Z47	X48	Y48	Z48	X49	Y49	Z49	X50	Y50	Z50	X51	Y51	Z51	X52	Y52	Z52	

58	0.5700000000000001	610.7130126953126	864.2380981445315	-394.1156616210939	374.1887207031251	921.2064208984377	-337.3761596679688	373.5807800292969	933.7408447265627	-225.1603393554688	586.0687866210939	862.689636230469	-121.5990753173828	523.7921752929689	800.4947509765627	-480.6252746582032	695.0258178710939	467.4327087402345	-404.3999023437501	663.5886840820314	439.4963989257814	-249.7313385009766	688.6144409179689	409.0530395507814	-412.4524841308595	744.6968383789064	394.0598449707032	-345.6530761718751	751.5165405273439	68.09384918212892	-379.5281066894532	755.3538208007814	74.52780151367189	-290.7018737792969	712.2114868164064	16.75129508972168	-337.3227844238282	895.3090820312502	43.02282714843751	-277.9177246093751	890.6279296875002	59.25351715087892	-335.5321655273438	862.5203247070315	33.47857284545899	-382.7179565429688	482.9036254882814	804.0277099609377	-50.92622375488283	385.3911743164064	447.444549560547	-121.8062286376953	414.3877258300782	434.1216125488282	-283.8702697753907	319.9562988281251	401.4569396972657	-129.8384399414063	392.9732666015626	345.2933349609376	-177.504638671875	133.2673797607422	129.4075012207032	-195.0848846435547	172.5062408447266	122.446273803711	-276.7901611328126	87.78638458251955	106.657455444336	-266.8569641113282	244.6307830810547	14.00150775909424	-252.2234954833985	240.1678161621094	36.21753692626954	-196.1338806152344	182.7253570556641	24.47033500671387	-159.3159942626953	443.404998779297	1375.422119140625	-292.8229675292969	376.3324584960938	1151.921508789063	-265.5675048828126	628.8975219726564	1155.281005859375	-287.7037658691407	561.8800659179689	1297.413330078125	-292.1319580078126	363.9354553222657	1185.981811523438	-366.6162414550782	403.6734313964845	1317.593994140625	-372.4314880371094	444.8809814453126	1318.502075195313	-452.087127685547	490.6850585937501	1322.038696289063	-478.3152465820314	390.8565673828126	1021.106750488281	-529.0415039062501	411.2391052246095	995.5051269531252	-440.4208374023439	384.0858764648439	1002.006774902344	-479.3687438964845	437.6462402343751	779.4129638671877	-565.9711303710939	357.9441528320313	791.8353271484377	-567.5524902343751	418.8186950683595	696.0092773437501	-592.1859130859376	333.6902770996094	735.6347656250001	-579.0230712890626	378.9360961914063	1194.730346679688	-159.878890991211	411.7796020507814	1329.17529296875	-190.5244445800782	467.1571044921876	1341.1826171875	-129.3129577636719	519.8248291015626	1345.990356445313	-117.9270248413086	579.5562133789064	1040.514038085938	-9.41068744659424	556.5178222656251	1005.313537597656	-85.88366699218751	580.7714233398439	994.658142089844	-38.25230789184571	812.9597778320315	943.3079223632815	-66.20243072509767	793.9121704101565	911.303161621094	-11.54630661010742	880.6186523437502	908.0937500000002	-56.82949066162111	814.4591064453127	858.7788085937502	-4.128169059753419	
59	0.58	625.9921875000001	866.2014770507815	-396.018035888672	389.0578918457032	921.4751586914065	-336.6959838867188	388.996795654297	931.8233642578127	-223.8659210205079	602.7662963867189	862.3035278320315	-124.9485931396485	539.5152587890626	803.5615844726565	-482.2438049316407	709.8642578125001	468.8878784179689	-405.1815490722657	681.5621337890626	443.2620849609376	-250.5962066650391	702.4686889648439	409.8823852539064	-413.178680419922	758.4053344726564	393.8566894531251	-347.1116943359376	753.6267700195314	67.07681274414064	-379.0280151367188	757.6682739257814	73.24100494384767	-290.2109375000001	712.0866699218751	17.1087703704834	-337.3099365234376	896.4319458007815	36.56185913085938	-276.5193786621094	893.907653808594	53.12373733520509	-334.4872131347657	864.3547973632815	28.73653984069825	-382.4919738769532	500.6912231445314	802.3686523437502	-52.11996841430665	405.5249938964845	445.2755126953126	-120.0646286010742	433.978485107422	430.8302612304689	-282.1752624511719	338.9151916503907	401.479217529297	-127.6977233886719	410.4519348144532	342.8058776855469	-174.4694213867188	142.2451629638672	137.3931427001953	-192.8800506591797	181.5640411376953	128.1499633789063	-273.8460388183594	97.09175872802737	118.034164428711	-265.0983581542969	245.0618438720704	14.84807300567627	-251.8504791259766	241.3352661132813	36.46625518798829	-195.7271881103516	184.33984375	27.26791954040528	-159.1162414550782	459.3182373046876	1375.963745117188	-294.8834838867188	391.9935913085939	1152.658325195313	-267.0777587890626	644.5479125976564	1155.902954101563	-289.4103698730469	577.7391357421876	1297.876708984375	-293.9207763671876	379.9953918457032	1187.156616210938	-368.7183837890626	420.1405334472657	1318.446044921875	-374.7384033203126	461.4887084960939	1319.508178710938	-454.3107299804689	507.8214416503907	1322.7177734375	-480.306365966797	406.5215759277345	1022.066589355469	-530.4055175781251	425.8581848144532	996.9962158203127	-441.3733825683595	399.2561950683595	1003.247802734375	-480.7005615234376	451.8733215332032	779.8602294921877	-565.7376708984376	372.3492736816407	792.9459228515627	-567.5713500976564	431.5582885742189	695.6452026367189	-590.1589355468751	347.1755065917969	737.1589355468751	-577.4916381835939	394.2847290039064	1195.475341796875	-161.7237243652344	427.2494506835939	1330.048706054688	-192.6297454833985	482.7655029296876	1341.796875	-131.329833984375	535.5595092773439	1346.274536132813	-119.7487869262696	592.1218872070314	1040.028686523438	-11.69312381744385	569.4324951171876	1005.258666992188	-88.56258392333986	593.1091308593751	994.2781982421877	-40.71421051025391	825.0930786132815	941.192810058594	-67.56127929687501	805.5656738281252	909.225280761719	-13.09823608398438	892.4966430664065	905.724792480469	-57.89915466308595	825.4908447265627	856.5250244140627	-5.762264251708985	
60	0.59	641.0426025390626	868.575622558594	-398.1637573242189	403.7310791015626	921.9954223632815	-335.7790222167969	404.224578857422	929.9390869140627	-222.2511901855469	619.4403686523439	862.299743652344	-128.588134765625	555.1761474609376	807.1873779296877	-483.9483337402345	723.7220458984376	470.2181396484376	-406.3117065429689	698.5232543945314	446.9153442382814	-251.7048950195313	715.4159545898439	410.802459716797	-414.1578369140626	771.257507324219	393.7086791992189	-348.8724365234376	755.1467285156251	66.35669708251955	-378.7273864746094	759.2319946289064	72.37422943115236	-289.9144897460938	711.6446533203126	17.49163436889649	-337.4402465820313	896.8610839843752	31.065092086792	-275.3077392578126	896.4937133789065	47.98909759521485	-333.6450195312501	865.632507324219	24.87519454956055	-382.5319213867188	518.8620605468751	800.805114746094	-53.28310012817384	426.8499755859376	443.0220947265626	-118.2553405761719	455.1573181152345	427.4665832519532	-280.4152221679688	359.3281250000001	401.4858398437501	-125.454216003418	429.3914489746095	340.4077148437501	-171.2916412353516	153.1051940917969	145.8324127197266	-190.8317565917969	192.4937591552735	134.0918273925782	-270.9869384765626	108.4246368408203	129.7757415771485	-263.4407958984376	246.7346343994141	16.15568542480469	-250.9898834228516	243.8022613525391	37.22338485717774	-194.9227142333985	187.392562866211	31.12598609924317	-158.6615295410157	475.2098388671876	1376.900756835938	-296.8013000488282	407.6062316894532	1153.797485351563	-268.5585327148438	660.1167602539064	1156.839965820313	-291.1581420898438	593.5527954101564	1298.7587890625	-295.6465148925782	396.0797424316407	1188.730712890625	-370.7282409667969	436.5362243652345	1319.711669921875	-376.8977355957032	477.9609985351564	1321.023193359375	-456.3912963867189	524.8683471679689	1323.941528320313	-482.1289672851564	422.6139221191407	1023.418823242188	-531.8750000000001	440.7933959960939	998.9351196289065	-442.3674621582032	414.8021240234376	1004.850219726563	-482.1622924804689	467.094207763672	780.8126220703127	-565.3438720703126	387.761199951172	794.3328247070315	-567.8391723632814	445.8851928710939	695.8535766601564	-587.7462768554689	362.0089111328126	738.6619873046876	-576.1191406250001	409.605438232422	1196.673583984375	-163.4583129882813	442.7693176269532	1331.326904296875	-194.5904846191407	498.4519042968751	1342.78662109375	-133.2478332519532	551.3994750976564	1346.885009765625	-121.4996337890625	604.3718261718751	1039.828491210938	-14.00873470306397	582.0823974609376	1005.518676757813	-91.35817718505861	604.9289550781251	994.1873779296877	-43.21617126464844	836.5437622070315	938.4393310546877	-68.59648895263673	816.3411254882815	906.6148071289065	-14.36601734161377	903.5382080078127	902.4846801757815	-58.57366943359376	835.354431152344	853.6431274414065	-7.128341197967531	
61	0.6	655.8363647460939	871.2717285156252	-400.4967651367189	418.2167053222657	922.775817871094	-334.7641601562501	419.2228393554689	928.185974121094	-220.4928131103516	635.9382934570314	862.688659667969	-132.3764801025391	570.7053833007814	811.208923339844	-485.7251281738282	736.5116577148439	471.3327941894532	-407.7516174316407	714.1641235351564	450.2287597656251	-253.0381774902344	727.3858642578126	411.7230529785157	-415.3593750000001	783.1339111328127	393.5520629882814	-350.8330383300782	756.2628173828126	65.91460418701173	-378.6094970703126	760.2313232421876	71.91263580322267	-289.8002319335938	711.1064453125001	17.87640571594239	-337.6788940429688	896.8266601562502	26.64750862121583	-274.3098754882813	898.522155761719	43.95426559448243	-333.0078125000001	866.5210571289065	21.96420860290528	-382.7979736328126	537.2367553710939	799.4187011718752	-54.42122650146486	449.2505798339845	440.7658996582032	-116.4247741699219	477.9445190429689	424.1132202148439	-278.6195068359376	381.1520385742188	401.4952392578126	-123.1512222290039	449.7852478027345	338.1708984375001	-168.081771850586	165.9730834960938	154.5478515625	-188.9892120361328	205.4042968750001	140.1591033935547	-268.3021545410157	121.8385314941407	141.5641632080078	-261.9189453125001	250.1074676513672	17.95727348327637	-249.5442962646485	248.016830444336	38.60077667236329	-193.6443328857422	192.328109741211	36.07755661010743	-157.8599243164063	491.0140686035157	1378.197143554688	-298.5431823730469	423.1255798339845	1155.29443359375	-270.0054626464844	675.5762329101564	1158.061889648438	-292.9017944335938	609.2733154296876	1300.02197265625	-297.2650756835938	412.1398010253907	1190.649047851563	-372.6286926269532	452.8022766113282	1321.348022460938	-378.8796081542969	494.2581787109376	1322.995849609375	-458.296600341797	541.7683105468751	1325.67041015625	-483.7515869140626	439.1007080078126	1025.116455078125	-533.4285888671876	456.0574340820314	1001.252502441406	-443.402313232422	430.6945800781251	1006.762390136719	-483.7352905273439	483.301727294922	782.2251586914065	-564.8162841796876	404.1658935546876	795.9415283203127	-568.3607177734376	461.7915954589845	696.6053466796876	-585.0411376953126	378.1695251464844	740.1043701171876	-574.9707641601564	424.8421020507814	1198.274169921875	-165.0715026855469	458.2761230468751	1332.962158203125	-196.3747558593751	514.1365966796876	1344.113647460938	-135.0301208496094	567.2641601562501	1347.794799804688	-123.1398391723633	616.3190307617189	1039.914306640625	-16.32897377014161	594.4752807617189	1006.097412109375	-94.23155975341798	616.2388305664064	994.3992309570315	-45.72067642211915	847.3084106445315	935.0788574218752	-69.3256301879883	826.2430419921877	903.5063476562502	-15.35832595825196	913.725769042969	898.3908691406252	-58.88899612426759	844.0757446289065	850.1821289062502	-8.226933479309084	
